<?xml version="1.0" encoding="utf-8"?>
<!-- Generator: Adobe Illustrator 22.1.0, SVG Export Plug-In . SVG Version: 6.00 Build 0)  -->
<svg version="1.1" id="Livello_1" xmlns="http://www.w3.org/2000/svg" xmlns:xlink="http://www.w3.org/1999/xlink" x="0px" y="0px"
	 viewBox="0 0 500 500" style="enable-background:new 0 0 500 500;" xml:space="preserve">
<style type="text/css">
	.st0{fill:none;stroke:#1D1D1B;stroke-width:18;stroke-linecap:round;stroke-linejoin:round;stroke-miterlimit:10;}
</style>
<title>mapcontrol</title>
<g>
	<polygon class="st0" points="407,146.6 250,234 92.2,146.6 249.6,71.2 	"/>
	<polygon class="st0" points="92.2,146.6 92.2,241.6 92.2,333.9 247.7,428 250,234 	"/>
	<polygon class="st0" points="407,146.6 407,334.1 247.7,428 250,234 	"/>
	<polyline class="st0" points="406.1,216 249.2,302.8 92.3,212.9 	"/>
	<polyline class="st0" points="407,278.8 248.4,367.3 92.2,275.5 	"/>
	<polyline class="st0" points="296.9,93.8 140.8,173.7 140.8,363.4 	"/>
	<polyline class="st0" points="353.8,121.1 195,203.6 195,396 	"/>
	<polyline class="st0" points="145.3,121.1 304.7,203.5 304.6,394.2 	"/>
	<polyline class="st0" points="202.5,93.7 358.8,173.3 361,361 	"/>
</g>
</svg>
