<?xml version="1.0" encoding="utf-8"?>
<!-- Generator: Adobe Illustrator 22.1.0, SVG Export Plug-In . SVG Version: 6.00 Build 0)  -->
<svg version="1.1" id="Livello_1" xmlns="http://www.w3.org/2000/svg" xmlns:xlink="http://www.w3.org/1999/xlink" x="0px" y="0px"
	 viewBox="0 0 500 500" style="enable-background:new 0 0 500 500;" xml:space="preserve">
<style type="text/css">
	.st0{fill:none;stroke:#1D1D1B;stroke-width:22;stroke-linecap:round;stroke-linejoin:round;stroke-dasharray:0,44.3;}
	.st1{fill:none;stroke:#1D1D1B;stroke-width:22;stroke-miterlimit:10;}
</style>
<title>orbitcontrol</title>
<path class="st0" d="M305.6,386.8c-12.7,8.5-26.7,13.2-41.5,13.2c-55.9,0-101.2-67.4-101.2-150.6s45.7-144.1,101.2-150.6
	c14.9-1.8,36.4,4.8,45.9,9.2"/>
<path class="st1" d="M382.4,186.9c24.6,9.7,39.3,22.1,39.3,35.6c0,30.9-77.2,56-172.4,56s-172.4-25.1-172.4-56
	c0-15.5,19.3-29.5,50.5-39.6"/>
<polyline class="st1" points="350.9,103.6 350.9,146.8 307.8,146.8 "/>
<polyline class="st1" points="307.9,343.6 351.1,343.6 351.1,386.8 "/>
</svg>
