<?xml version="1.0" encoding="utf-8"?>
<!-- Generator: Adobe Illustrator 22.1.0, SVG Export Plug-In . SVG Version: 6.00 Build 0)  -->
<svg version="1.1" id="Livello_1" xmlns="http://www.w3.org/2000/svg" xmlns:xlink="http://www.w3.org/1999/xlink" x="0px" y="0px"
	 viewBox="0 0 500 500" style="enable-background:new 0 0 500 500;" xml:space="preserve">
<style type="text/css">
	.st0{opacity:0.7;}
	.st1{fill:none;stroke:#1D1D1B;stroke-width:22;stroke-miterlimit:10;}
	.st2{opacity:0.5;}
	.st3{opacity:0.2;}
</style>
<title>mapcontrol</title>
<g class="st0">
	<polyline class="st1" points="290.2,408.4 249.2,449.3 208.3,408.4 	"/>
	<line class="st1" x1="249.2" y1="443.6" x2="249.2" y2="297.6"/>
	<polyline class="st1" points="208.3,90.9 249.2,49.9 290.2,90.9 	"/>
	<line class="st1" x1="249.2" y1="55.6" x2="249.2" y2="201.6"/>
</g>
<g class="st2">
	<polyline class="st1" points="150.4,374.6 93.1,366.3 101.4,309 	"/>
	<line class="st1" x1="93.5" y1="365.6" x2="210.6" y2="278.3"/>
	<polyline class="st1" points="348.1,125.6 405.4,133.9 397,191.2 	"/>
	<line class="st1" x1="404.6" y1="133.7" x2="287.5" y2="221"/>
</g>
<g class="st3">
	<polyline class="st1" points="94.9,211.7 78.8,156.2 134.4,140 	"/>
	<line class="st1" x1="79.6" y1="156.3" x2="207.5" y2="226.6"/>
	<polyline class="st1" points="403.6,288.5 419.7,344.1 364.1,360.2 	"/>
	<line class="st1" x1="419.6" y1="343.2" x2="291.7" y2="272.9"/>
</g>
<circle class="st1" cx="249.2" cy="249.6" r="48"/>
</svg>
