<?xml version="1.0" encoding="utf-8"?>
<!-- Generator: Adobe Illustrator 22.1.0, SVG Export Plug-In . SVG Version: 6.00 Build 0)  -->
<svg version="1.1" id="Livello_1" xmlns="http://www.w3.org/2000/svg" xmlns:xlink="http://www.w3.org/1999/xlink" x="0px" y="0px"
	 viewBox="0 0 500 500" style="enable-background:new 0 0 500 500;" xml:space="preserve">
<style type="text/css">
	.st0{fill:none;stroke:#1D1D1B;stroke-width:22;stroke-miterlimit:10;}
</style>
<title>mapcontrol</title>
<path class="st0" d="M438,249c0,0-84.6,114-189,114S60,249,60,249s84.6-114,189-114S438,249,438,249z"/>
<path class="st0" d="M85,163.3c32.6-33.8,93.8-77.3,164-77.3c71.6,0,133.9,45.7,166,79.3"/>
<line class="st0" x1="60" y1="249" x2="438" y2="249"/>
<line class="st0" x1="250" y1="249" x2="250" y2="299"/>
<line class="st0" x1="197.5" y1="249" x2="190.8" y2="289.1"/>
<line class="st0" x1="135.3" y1="249" x2="130.5" y2="278.1"/>
<line class="st0" x1="302.5" y1="249" x2="309.2" y2="289.1"/>
<line class="st0" x1="364.7" y1="249" x2="369.5" y2="278.1"/>
</svg>
