<svg id="svg" xmlns="http://www.w3.org/2000/svg" viewBox="0 0 500 500"><defs><style>.cls-1{fill:none;stroke:#1e1e1c;stroke-linejoin:round;stroke-width:8px;}</style></defs><title>3Deven</title><polygon class="cls-1" points="299.36 239.61 250 266.94 200.64 239.61 250 215.96 299.36 239.61"/><polygon class="cls-1" points="200.64 239.61 200.64 269.4 200.64 298.38 249.42 327.87 249.42 266.94 200.64 239.61"/><polygon class="cls-1" points="299.36 239.65 299.36 298.42 249.42 327.87 249.42 266.94 299.36 239.65"/><polyline class="cls-1" points="129 314.03 129 243 129 169.98 250 112 371 169.98 371 170.07 371 314.12"/><line class="cls-1" x1="250" y1="215.96" x2="250" y2="112"/><polyline class="cls-1" points="299.36 278.26 371 314.12 371 314.12 248.57 386.34 129 314.03 200.24 278.43"/></svg>