<svg id="svg" xmlns="http://www.w3.org/2000/svg" viewBox="0 0 500 500"><defs><style>.cls-1{fill:#1e1e1c;}</style></defs><title>points</title><path class="cls-1" d="M262,172.39a114,114,0,1,0,114,114A114,114,0,0,0,262,172.39Zm64.65,127.5H274.4v52.2h-25v-52.2H197.2v-25h52.2v-52.2h25v52.2h52.2Z"/><path class="cls-1" d="M142.7,90.87a51.72,51.72,0,1,0,51.72,51.72A51.71,51.71,0,0,0,142.7,90.87ZM172,148.71H148.34v23.68H137V148.71H113.32V137.37H137V113.69h11.34v23.68H172Z"/><path class="cls-1" d="M396.16,144.83a24.74,24.74,0,1,0,24.74,24.74A24.74,24.74,0,0,0,396.16,144.83Zm14,27.67H398.87v11.33h-5.43V172.5H382.11v-5.43h11.33V155.74h5.43v11.33h11.32Z"/></svg>